<svg width="51" height="50" viewBox="0 0 51 50" fill="none" xmlns="http://www.w3.org/2000/svg">
<path d="M47.9077 14.9343C47.5758 14.1126 45.6999 14.0339 44.4316 14.5462C45.305 15.4912 45.8066 16.4781 45.8836 18.1412C46.8552 17.3506 48.2396 15.756 47.9077 14.9343Z" fill="white"/>
<path d="M24.5246 9.61079L29.7422 20.0747L29.2629 21.7715L19.316 15.7761C18.9458 15.553 18.7772 15.1049 18.9084 14.6931C18.9374 14.6019 18.9803 14.5157 19.0356 14.4376C20.3647 12.5618 21.7031 10.8004 22.9394 9.38729C23.3936 8.86808 24.2167 8.99343 24.5246 9.61079Z" fill="white"/>
<path d="M30.2728 22.9432C25.434 20.5641 18.1979 16.5858 15.244 13.5117C14.7055 12.9512 13.67 12.9555 13.3113 13.6451C10.9468 18.1913 8.64623 25.8181 13.85 29.1219C18.002 31.7579 21.4412 32.9236 23.5198 33.4055C21.795 33.1995 19.6252 33.154 18.3736 33.8009C16.6015 34.7168 12.6575 37.2232 10.907 38.3619L21.5781 44.0737C22.2086 42.5783 24.8024 39.1793 30.1336 37.5465C36.7975 35.5056 42.049 32.0896 44.208 26.7633C45.2877 24.1001 46.1033 17.3632 42.6461 14.238C38.6951 10.6664 32.5848 12.4213 30.1956 21.3751C29.8936 22.3236 29.8497 22.6465 30.2728 22.9432Z" fill="white"/>
<path d="M35.7316 36.0618H36.2316V35.5618V29.8951C36.2316 28.609 37.2806 27.5617 38.5804 27.5617C39.8801 27.5617 40.9291 28.609 40.9291 29.8951V35.5618V36.0618H41.4291H47.1267C48.4264 36.0618 49.4754 37.109 49.4754 38.3952C49.4754 39.6814 48.4264 40.7286 47.1267 40.7286H41.4291H40.9291V41.2286V46.8953C40.9291 48.1814 39.8801 49.2287 38.5804 49.2287C37.2806 49.2287 36.2316 48.1814 36.2316 46.8953V41.2286V40.7286H35.7316H30.0341C28.7343 40.7286 27.6853 39.6814 27.6853 38.3952C27.6853 37.109 28.7343 36.0618 30.0341 36.0618H35.7316Z" fill="#FCFCF8" stroke="#F85A3E"/>
</svg>
