<svg width="33" height="25" viewBox="0 0 33 25" fill="none" xmlns="http://www.w3.org/2000/svg">
<g clip-path="url(#clip0)">
<path d="M27.3149 4.23395H2.10294C0.943338 4.23395 0 4.94671 0 5.82278V19.1772C0 20.0533 0.943338 20.7661 2.10294 20.7661H27.3149C28.4745 20.7661 29.418 20.0533 29.418 19.1772V5.82278C29.4181 4.94671 28.4745 4.23395 27.3149 4.23395ZM20.2849 18.5389C20.2849 19.0423 19.7448 19.4502 19.0788 19.4502H3.10449C2.4383 19.4502 1.89839 19.0421 1.89839 18.5389V6.46105C1.89839 5.95772 2.43841 5.54975 3.10449 5.54975H19.0788C19.745 5.54975 20.2849 5.9578 20.2849 6.46105V18.5389H20.2849Z" fill="#35D732"/>
<path d="M30.8971 7.68207C30.8971 7.68207 30.8038 7.68207 30.6888 7.68207C30.5738 7.68207 30.4805 7.80185 30.4805 7.94939V17.0505C30.4805 17.1981 30.5736 17.3178 30.6888 17.3178H30.8971C32.0567 17.3178 33 16.605 33 15.729V9.2709C33 8.39483 32.0567 7.68207 30.8971 7.68207Z" fill="#35D732"/>
</g>
<defs>
<clipPath id="clip0">
<rect width="33" height="25" fill="white"/>
</clipPath>
</defs>
</svg>
