<svg width="38" height="38" viewBox="0 0 38 38" fill="none" xmlns="http://www.w3.org/2000/svg">
<path d="M9.85743 9.7871C8.58819 11.0563 8.58267 13.1085 9.845 14.3709L14.4164 18.9422L9.82016 23.5384C8.55097 24.8076 8.54535 26.8598 9.80774 28.1222C11.0701 29.3846 13.1223 29.379 14.3915 28.1098L18.9877 23.5136L23.5591 28.0849C24.8214 29.3473 26.8736 29.3417 28.1428 28.0725C29.4121 26.8033 29.4176 24.7511 28.1552 23.4887L23.5839 18.9174L28.1801 14.3212C29.4493 13.052 29.4549 10.9998 28.1925 9.73742C26.9301 8.47502 24.8779 8.48065 23.6087 9.74984L19.0125 14.346L14.4412 9.77468C13.1789 8.51235 11.1267 8.51787 9.85743 9.7871Z" fill="#141034"/>
</svg>
