<svg xmlns="http://www.w3.org/2000/svg" viewBox="0 0 163.19 142.92"><defs><style>.cls-1,.cls-2,.cls-3,.cls-4,.cls-5,.cls-6{fill:none;stroke-miterlimit:10;}.cls-1,.cls-2,.cls-6{stroke:#f85a3e;}.cls-1,.cls-3{stroke-width:5px;}.cls-2,.cls-4{stroke-width:4px;}.cls-3,.cls-4,.cls-5{stroke:#141034;}.cls-5,.cls-6{stroke-width:7px;}</style></defs><g id="Camada_2" data-name="Camada 2"><g id="Camada_3" data-name="Camada 3"><path class="cls-1" d="M98.51,25.53c-.32-.09-.31-.63,0-.66,4.55-.45,18.47-5.36,34.07-14.6C150,0,162,.07,160.57,9.67S130,34.39,98.51,25.53Z"/><path class="cls-2" d="M69.11,31.59a4.07,4.07,0,0,1-.45-2c0-1.4.35-3.9,2.63-4.83,3.24-1.32,7.92,1,7.5,5.28C78.5,33,76,34,74.49,34.3a4.21,4.21,0,0,1-2.43-.21A5.64,5.64,0,0,1,69.11,31.59Z"/><path class="cls-3" d="M27.12,34.26a6.46,6.46,0,0,1-.72-3c0-2.19.56-6.08,4.11-7.52,5-2.06,12.32,1.59,11.67,8.22-.45,4.58-4.34,6.08-6.7,6.57a6.48,6.48,0,0,1-3.77-.32A8.77,8.77,0,0,1,27.12,34.26Z"/><path class="cls-4" d="M69.59,85.16c-2-.3-5.25.48-5.43,3.29C64,90.82,65.63,92.51,67,93.52a4.89,4.89,0,0,0,4.66.65,3.71,3.71,0,0,0,2.41-4A5.37,5.37,0,0,0,69.59,85.16Z"/><path class="cls-2" d="M2.28,65.25a10.51,10.51,0,0,1-.19-3.79c.26-1.6.76-3.58,4.94-3.55,5.12.05,5.13,7.48,3.81,9s-3.09,2.72-6.16,1.24A4.64,4.64,0,0,1,2.28,65.25Z"/><path class="cls-5" d="M48.49,56c-4.2,1.32-11.7,4.61-7.5,6.29,9.13,3.65,22.28,5.93,47.94,15.9,27.48,10.68,58.58,5.51,49.44-9.12C125.77,48.91,92.05,42.31,48.49,56Z"/><path class="cls-6" d="M23.33,74.24c.11-.36.6-.48.71-.12,1.47,4.94,10.78,17.23,23.25,33.11,15.18,19.34,15.85,31.74,5.4,32.19S15.49,97.75,23.33,74.24Z"/></g></g></svg>