<svg xmlns="http://www.w3.org/2000/svg" viewBox="0 0 223.04 229.41"><defs><style>.cls-1,.cls-2,.cls-3,.cls-4,.cls-5,.cls-6{fill:none;stroke-miterlimit:10;}.cls-1,.cls-2,.cls-5{stroke:#f8f8f8;}.cls-1{stroke-width:6px;}.cls-2,.cls-3{stroke-width:5px;}.cls-3,.cls-4,.cls-6{stroke:#d1d1d1;}.cls-4{stroke-width:9px;}.cls-5{stroke-width:11px;}.cls-6{stroke-width:7px;}</style></defs><g id="Camada_2" data-name="Camada 2"><g id="Camada_3" data-name="Camada 3"><path class="cls-1" d="M175.06,153.3c.31-8.55,2.12-16.55,3.43-12.89,4.22,11.8,6.48,17.82,24.63,43.64,16.41,23.34,22.48,38.14,11,41.86C198,231.16,173.63,193.69,175.06,153.3Z"/><path class="cls-2" d="M162.24,100.77a10.2,10.2,0,0,1,1.91-3.2c1.45-1.54,5.56-2.9,8.46-1.26a7.83,7.83,0,0,1,1.33,12.83c-3.27,2.92-6.17,2.85-8.12,1.93a7.28,7.28,0,0,1-4.07-5.16C161.33,104.4,161.44,103.21,162.24,100.77Z"/><path class="cls-3" d="M87.06,103.84c.45-3.15-.77-7.83-5.1-7.23-3.64.5-6.23,3.48-7.78,5.93s-2,5.13-1,7.27c.83,1.82,2.58,3.4,6.23,2.41C79.44,112.22,86.09,110.57,87.06,103.84Z"/><path class="cls-1" d="M107.06,4.48c1.52-.76,4.08-1.66,5.64-1.45,5.4.72,5.39,1.59,5.36,6.55C118,17.51,107,19.8,104.65,18.24s-4.11-3.95-1.94-9.15A9.19,9.19,0,0,1,107.06,4.48Z"/><path class="cls-4" d="M126.29,70.81c-2.47-5.33-8.22-14.47-10-7.93-3.94,14.23-5.36,33.52-16,73.38-11.42,42.69.3,84,19.91,65.3C147.18,175.78,151.91,126,126.29,70.81Z"/><path class="cls-5" d="M98,36.89a.49.49,0,0,1,.13.94c-7,2.9-24.61,17.7-47.43,37.43-27.78,24-45.1,27.19-45.15,13.2S52.67,30.79,98,36.89Z"/><path class="cls-6" d="M163.48,55.55a10.81,10.81,0,0,1-8.2,1.39c-3.48-.83-7.85-3.24-8.38-10C146,35.37,155.44,31.22,162.2,35,169.29,38.88,172.77,49.82,163.48,55.55Z"/></g></g></svg>