<svg width="51" height="21" viewBox="0 0 51 21" fill="none" xmlns="http://www.w3.org/2000/svg">
<path d="M10.856 18.778C10.3013 18.0153 9.77267 17.2613 9.27 16.516C8.78467 15.7533 8.256 14.9213 7.684 14.02C7.12933 13.1187 6.488 12.122 5.76 11.03C5.04933 9.92067 4.19133 8.62933 3.186 7.156C3.186 8.456 3.186 9.626 3.186 10.666C3.186 11.6887 3.17733 12.642 3.16 13.526C3.14267 14.41 3.12533 15.242 3.108 16.022C3.09067 16.802 3.06467 17.582 3.03 18.362C3.01267 18.778 2.96933 19.0987 2.9 19.324C2.848 19.5493 2.77 19.7227 2.666 19.844C2.562 19.9653 2.44067 20.0347 2.302 20.052C2.18067 20.0867 2.03333 20.104 1.86 20.104C1.548 20.104 1.288 20 1.08 19.792C0.872 19.5667 0.750667 19.0987 0.716 18.388C0.629333 16.4813 0.577333 14.5747 0.56 12.668C0.56 10.744 0.56 8.75933 0.56 6.714C0.56 5.55267 0.568667 4.64267 0.586 3.984C0.620667 3.32533 0.681333 2.83133 0.768 2.502C0.872 2.17267 1.002 1.96467 1.158 1.878C1.33133 1.79133 1.55667 1.748 1.834 1.748C2.11133 1.748 2.47533 1.96467 2.926 2.398C3.37667 2.814 3.87067 3.36867 4.408 4.062C4.94533 4.75533 5.51733 5.55267 6.124 6.454C6.748 7.35533 7.36333 8.28267 7.97 9.236C8.57667 10.1893 9.15733 11.134 9.712 12.07C10.284 13.006 10.804 13.8553 11.272 14.618C11.2547 13.8033 11.246 12.9107 11.246 11.94C11.246 10.952 11.246 9.86 11.246 8.664C11.246 7.29467 11.2547 6.168 11.272 5.284C11.2893 4.38267 11.3327 3.672 11.402 3.152C11.4887 2.632 11.6187 2.268 11.792 2.06C11.9653 1.852 12.208 1.748 12.52 1.748C12.8147 1.748 13.0747 1.84333 13.3 2.034C13.5253 2.22467 13.6553 2.66667 13.69 3.36C13.7247 3.984 13.7507 4.53867 13.768 5.024C13.7853 5.50933 13.8027 5.99467 13.82 6.48C13.8373 6.948 13.846 7.442 13.846 7.962C13.846 8.46467 13.846 9.03667 13.846 9.678C13.846 10.458 13.846 11.2033 13.846 11.914C13.846 12.6247 13.8373 13.3267 13.82 14.02C13.8027 14.7133 13.7853 15.4153 13.768 16.126C13.7507 16.8367 13.7247 17.582 13.69 18.362C13.6727 18.778 13.6293 19.0987 13.56 19.324C13.508 19.5493 13.43 19.7227 13.326 19.844C13.222 19.9653 13.1007 20.0347 12.962 20.052C12.8407 20.0867 12.6933 20.104 12.52 20.104C12.2253 20.104 11.974 20.0173 11.766 19.844C11.558 19.6707 11.2547 19.3153 10.856 18.778ZM17.1703 18.388C17.1357 17.7467 17.101 17.0187 17.0663 16.204C17.049 15.372 17.0403 14.462 17.0403 13.474C17.0403 12.2433 17.049 11.1947 17.0663 10.328C17.0837 9.444 17.127 8.72467 17.1963 8.17C17.283 7.598 17.413 7.182 17.5863 6.922C17.7597 6.64467 18.0023 6.506 18.3143 6.506C18.609 6.506 18.869 6.61 19.0943 6.818C19.3197 7.026 19.4497 7.47667 19.4843 8.17C19.5883 9.99 19.6403 11.7493 19.6403 13.448C19.6403 14.3147 19.623 15.1293 19.5883 15.892C19.5537 16.6373 19.519 17.4607 19.4843 18.362C19.467 18.778 19.4237 19.0987 19.3543 19.324C19.3023 19.5493 19.2243 19.7227 19.1203 19.844C19.0163 19.9653 18.895 20.0347 18.7563 20.052C18.635 20.0867 18.4877 20.104 18.3143 20.104C18.0023 20.104 17.7423 20 17.5343 19.792C17.3263 19.5667 17.205 19.0987 17.1703 18.388ZM18.3403 1.8C18.739 1.8 19.103 1.956 19.4323 2.268C19.779 2.58 19.9523 2.95267 19.9523 3.386C19.9523 3.802 19.779 4.166 19.4323 4.478C19.0857 4.77267 18.6957 4.92 18.2623 4.92C17.8983 4.92 17.5517 4.77267 17.2223 4.478C16.9103 4.166 16.7543 3.78467 16.7543 3.334C16.7543 2.918 16.9103 2.56267 17.2223 2.268C17.5517 1.956 17.9243 1.8 18.3403 1.8ZM33.6956 19.948C33.3489 19.948 33.0542 19.8093 32.8116 19.532C32.5862 19.2547 32.4302 18.934 32.3436 18.57C32.1356 18.7607 31.8929 18.9513 31.6156 19.142C31.3556 19.3327 31.0522 19.5147 30.7056 19.688C30.3589 19.844 29.9776 19.974 29.5616 20.078C29.1456 20.182 28.6949 20.234 28.2096 20.234C27.6202 20.234 26.9616 20.1387 26.2336 19.948C25.5229 19.74 24.8469 19.3933 24.2056 18.908C23.5816 18.4053 23.0529 17.7293 22.6196 16.88C22.2036 16.0307 21.9956 14.9647 21.9956 13.682C21.9956 12.59 22.1602 11.6193 22.4896 10.77C22.8189 9.92067 23.2782 9.21 23.8676 8.638C24.4742 8.04867 25.1849 7.60667 25.9996 7.312C26.8316 7 27.7329 6.844 28.7036 6.844C29.5356 6.844 30.1942 6.93933 30.6796 7.13C31.1649 7.32067 31.5462 7.546 31.8236 7.806C31.8236 7.338 31.8236 6.80933 31.8236 6.22C31.8236 5.61333 31.8236 5.03267 31.8236 4.478C31.8409 3.906 31.8496 3.386 31.8496 2.918C31.8669 2.45 31.8842 2.09467 31.9016 1.852C31.9362 1.26267 32.0402 0.863999 32.2136 0.656C32.3869 0.430666 32.6902 0.317999 33.1236 0.317999C33.5742 0.317999 33.8776 0.430666 34.0336 0.656C34.2069 0.863999 34.3109 1.23667 34.3456 1.774C34.3629 1.99933 34.3716 2.30267 34.3716 2.684C34.3889 3.06533 34.3976 3.48133 34.3976 3.932C34.3976 4.38267 34.3976 4.842 34.3976 5.31C34.4149 5.76067 34.4236 6.17667 34.4236 6.558C34.4236 6.922 34.4236 7.22533 34.4236 7.468C34.4236 7.71067 34.4236 7.832 34.4236 7.832C34.4236 9.6 34.4062 11.2293 34.3716 12.72C34.3542 14.2107 34.3456 15.398 34.3456 16.282C34.3802 16.4727 34.4496 16.6547 34.5536 16.828C34.6749 17.0013 34.7962 17.1747 34.9176 17.348C35.0562 17.5213 35.1776 17.7033 35.2816 17.894C35.3856 18.0847 35.4376 18.284 35.4376 18.492C35.4376 18.7347 35.3769 18.9513 35.2556 19.142C35.1342 19.3153 34.9782 19.4627 34.7876 19.584C34.6142 19.7053 34.4236 19.8007 34.2156 19.87C34.0249 19.922 33.8516 19.948 33.6956 19.948ZM28.6776 17.66C29.7522 17.66 30.5756 17.3393 31.1476 16.698C31.7196 16.0567 32.0056 14.9993 32.0056 13.526C32.0056 10.7007 30.8876 9.288 28.6516 9.288C28.1316 9.288 27.6289 9.366 27.1436 9.522C26.6582 9.678 26.2249 9.92067 25.8436 10.25C25.4796 10.5793 25.1762 10.9953 24.9336 11.498C24.7082 12.0007 24.5956 12.5987 24.5956 13.292C24.5956 13.864 24.6736 14.41 24.8296 14.93C25.0029 15.45 25.2542 15.918 25.5836 16.334C25.9302 16.7327 26.3549 17.0533 26.8576 17.296C27.3776 17.5387 27.9842 17.66 28.6776 17.66ZM43.6623 6.818C44.6503 6.818 45.5343 6.974 46.3143 7.286C47.0943 7.58067 47.753 8.00533 48.2903 8.56C48.845 9.11467 49.2696 9.79067 49.5643 10.588C49.859 11.3853 50.0063 12.278 50.0063 13.266C50.0063 14.358 49.833 15.3373 49.4863 16.204C49.157 17.0707 48.689 17.8073 48.0823 18.414C47.493 19.0207 46.7823 19.4887 45.9503 19.818C45.1356 20.1473 44.243 20.312 43.2723 20.312C42.215 20.312 41.279 20.13 40.4643 19.766C39.667 19.402 38.991 18.908 38.4363 18.284C37.899 17.66 37.4916 16.9407 37.2143 16.126C36.937 15.3113 36.7983 14.4533 36.7983 13.552C36.7983 12.564 36.9543 11.6627 37.2663 10.848C37.5956 10.016 38.055 9.30533 38.6443 8.716C39.251 8.10933 39.979 7.64133 40.8283 7.312C41.6776 6.98267 42.6223 6.818 43.6623 6.818ZM43.3763 17.92C44.087 17.92 44.6936 17.7987 45.1963 17.556C45.699 17.296 46.1063 16.958 46.4183 16.542C46.7476 16.126 46.9816 15.658 47.1203 15.138C47.2763 14.6007 47.3543 14.046 47.3543 13.474C47.3543 12.8847 47.2763 12.3387 47.1203 11.836C46.9816 11.316 46.7563 10.8653 46.4443 10.484C46.1496 10.1027 45.7596 9.808 45.2743 9.6C44.8063 9.37467 44.243 9.262 43.5843 9.262C42.9083 9.262 42.319 9.37467 41.8163 9.6C41.3136 9.82533 40.889 10.1373 40.5423 10.536C40.213 10.9173 39.9616 11.3767 39.7883 11.914C39.615 12.4513 39.5283 13.032 39.5283 13.656C39.5283 14.9213 39.849 15.9527 40.4903 16.75C41.149 17.53 42.111 17.92 43.3763 17.92Z" fill="#F85A3E"/>
</svg>
