<svg width="25" height="25" viewBox="0 0 25 25" fill="none" xmlns="http://www.w3.org/2000/svg">
<path d="M11.4426 25C13.3291 25 14.9073 23.6551 15.2697 21.875H7.61548C7.97807 23.6551 9.55621 25 11.4426 25Z" fill="#141034"/>
<path d="M18.7466 12.499C18.7424 12.499 18.7382 12.5 18.734 12.5C14.7143 12.5 11.4424 9.22906 11.4424 5.20837C11.4424 4.10307 11.6966 3.05822 12.1393 2.11866C11.9101 2.09692 11.6778 2.08337 11.4424 2.08337C7.41541 2.08337 4.15079 5.3478 4.15079 9.37498V12.2791C4.15079 14.3406 3.24767 16.2864 1.66323 17.626C1.13509 18.0771 0.900673 18.7958 1.09026 19.4969C1.31113 20.3125 2.11737 20.8334 2.96328 20.8334H19.9164C20.8039 20.8334 21.6404 20.2583 21.8205 19.3886C21.9601 18.7156 21.7205 18.0437 21.1987 17.6052C19.684 16.3355 18.808 14.4697 18.7466 12.499Z" fill="#141034"/>
<path d="M23.9425 5.2084C23.9425 8.08487 21.6107 10.4166 18.7341 10.4166C15.8576 10.4166 13.5259 8.08487 13.5259 5.2084C13.5259 2.33192 15.8576 0 18.7341 0C21.6107 0 23.9425 2.33192 23.9425 5.2084Z" fill="#F85A3E"/>
</svg>
