<svg xmlns="http://www.w3.org/2000/svg" viewBox="0 0 120.94 173.17"><defs><style>.cls-1{fill:#f85a3e;}.cls-2{fill:#ea4b36;}</style></defs><g id="Camada_2" data-name="Camada 2"><g id="Camada_2-2" data-name="Camada 2"><path class="cls-1" d="M60.47,90.71a30.39,30.39,0,0,1,0-60.77V0A62.18,62.18,0,0,0,11.36,23.75C-12.4,62.27,8.48,93.23,8.48,93.23s35.64,56.88,43.2,69.48c4.39,7.32,7.2,9.66,8.79,10.34Z"/><path class="cls-2" d="M60.47,90.84a30.39,30.39,0,0,0,0-60.77V.13a62.1,62.1,0,0,1,49.1,23.75c23.76,38.52,2.88,69.48,2.88,69.48s-35.64,56.88-43.2,69.48c-4.39,7.31-7.2,9.65-8.78,10.33Z"/></g></g></svg>