<svg width="61" height="61" viewBox="0 0 61 61" fill="none" xmlns="http://www.w3.org/2000/svg">
<path d="M39.5923 23.5953C39.5923 28.5576 35.5497 32.5835 30.5629 32.5835C25.5753 32.5835 21.5334 28.5576 21.5334 23.5953C21.5334 18.6315 25.5761 14.607 30.5629 14.607C35.5507 14.6067 39.5923 18.6312 39.5923 23.5953ZM48.9607 23.5953C48.9607 13.6667 40.8758 5.61841 30.9015 5.61841C20.9279 5.61841 12.8423 13.6667 12.8423 23.5953C12.8423 27.9605 14.4069 31.9631 17.007 35.0764L30.9171 55.0545L45.0306 34.785C45.5375 34.1535 46.0018 33.488 46.4206 32.7883L46.5633 32.5846H46.5399C48.0769 29.9387 48.9607 26.8712 48.9607 23.5953Z" fill="#141034"/>
</svg>
