<svg xmlns="http://www.w3.org/2000/svg" viewBox="0 0 14.63 23.63"><defs><style>.cls-1{fill:#141034;}</style></defs><title>voltar_azul</title><g id="Camada_2" data-name="Camada 2"><g id="Camada_1-2" data-name="Camada 1"><path class="cls-1" d="M.84,13.8a2.86,2.86,0,0,1,0-4.05L9.74.84a2.86,2.86,0,0,1,4,0h0a2.86,2.86,0,0,1,0,4.05L4.89,13.8a2.86,2.86,0,0,1-4,0Z"/><path class="cls-1" d="M4.89,9.83l8.9,8.91a2.86,2.86,0,0,1,0,4.05h0a2.86,2.86,0,0,1-4,0L.84,13.88a2.86,2.86,0,0,1,0-4.05h0A2.86,2.86,0,0,1,4.89,9.83Z"/></g></g></svg>