<svg id="Camada_1" data-name="Camada 1" xmlns="http://www.w3.org/2000/svg" viewBox="0 0 14.63 23.63"><defs><style>.cls-1{fill:#141034;}</style></defs><title>voltar2</title><path class="cls-1" d="M2,15a2.88,2.88,0,0,1,0-4.05L10.93,2A2.88,2.88,0,0,1,15,2h0a2.88,2.88,0,0,1,0,4.05L6.07,15A2.86,2.86,0,0,1,2,15Z" transform="translate(-1.19 -1.19)"/><path class="cls-1" d="M6.07,11,15,19.93A2.88,2.88,0,0,1,15,24h0a2.88,2.88,0,0,1-4.05,0L2,15.07A2.88,2.88,0,0,1,2,11H2A2.86,2.86,0,0,1,6.07,11Z" transform="translate(-1.19 -1.19)"/></svg>